<mxfile host="app.diagrams.net" modified="2024-06-26T21:59:49.435Z" agent="Mozilla/5.0 (Macintosh; Intel Mac OS X 10_15_7) AppleWebKit/537.36 (KHTML, like Gecko) Chrome/126.0.0.0 Safari/537.36" etag="fYFSr7aEwEcVs0RLLmii" version="24.6.3" type="device">
  <diagram name="Page-1" id="w_8s2wJzCcAkMgXJfNyq">
    <mxGraphModel dx="788" dy="751" grid="1" gridSize="10" guides="1" tooltips="1" connect="1" arrows="1" fold="1" page="1" pageScale="1" pageWidth="827" pageHeight="1169" math="0" shadow="0">
      <root>
        <mxCell id="0" />
        <mxCell id="1" parent="0" />
        <mxCell id="j5pVDA61vwnsiKHxyYFa-1" value="Upper Bound" style="rounded=0;whiteSpace=wrap;html=1;fillColor=#f8cecc;strokeColor=#b85450;" parent="1" vertex="1">
          <mxGeometry x="202" y="82" width="400" height="40" as="geometry" />
        </mxCell>
        <mxCell id="j5pVDA61vwnsiKHxyYFa-11" value="" style="endArrow=none;dashed=1;html=1;rounded=0;exitX=1;exitY=0.5;exitDx=0;exitDy=0;" parent="1" source="j5pVDA61vwnsiKHxyYFa-29" edge="1">
          <mxGeometry width="50" height="50" relative="1" as="geometry">
            <mxPoint x="200" y="720" as="sourcePoint" />
            <mxPoint x="200" y="80" as="targetPoint" />
          </mxGeometry>
        </mxCell>
        <mxCell id="j5pVDA61vwnsiKHxyYFa-12" value="0" style="text;html=1;align=right;verticalAlign=middle;whiteSpace=wrap;rounded=0;" parent="1" vertex="1">
          <mxGeometry x="140" y="80" width="60" height="10" as="geometry" />
        </mxCell>
        <mxCell id="j5pVDA61vwnsiKHxyYFa-14" value="" style="endArrow=none;dashed=1;html=1;rounded=0;entryX=0.5;entryY=1;entryDx=0;entryDy=0;" parent="1" edge="1" target="j5pVDA61vwnsiKHxyYFa-18">
          <mxGeometry width="50" height="50" relative="1" as="geometry">
            <mxPoint x="200" y="80" as="sourcePoint" />
            <mxPoint x="840" y="80" as="targetPoint" />
          </mxGeometry>
        </mxCell>
        <mxCell id="j5pVDA61vwnsiKHxyYFa-15" value="0" style="text;html=1;align=left;verticalAlign=middle;whiteSpace=wrap;rounded=0;" parent="1" vertex="1">
          <mxGeometry x="200" y="70" width="60" height="10" as="geometry" />
        </mxCell>
        <mxCell id="j5pVDA61vwnsiKHxyYFa-17" value="50" style="text;html=1;align=right;verticalAlign=middle;whiteSpace=wrap;rounded=0;" parent="1" vertex="1">
          <mxGeometry x="140" y="470" width="60" height="20" as="geometry" />
        </mxCell>
        <mxCell id="j5pVDA61vwnsiKHxyYFa-18" value="50" style="text;html=1;align=center;verticalAlign=middle;whiteSpace=wrap;rounded=0;" parent="1" vertex="1">
          <mxGeometry x="570" y="70" width="60" height="10" as="geometry" />
        </mxCell>
        <mxCell id="j5pVDA61vwnsiKHxyYFa-19" value="20" style="text;html=1;align=right;verticalAlign=middle;whiteSpace=wrap;rounded=0;" parent="1" vertex="1">
          <mxGeometry x="140" y="230" width="60" height="20" as="geometry" />
        </mxCell>
        <mxCell id="j5pVDA61vwnsiKHxyYFa-21" value="20" style="text;html=1;align=center;verticalAlign=middle;whiteSpace=wrap;rounded=0;" parent="1" vertex="1">
          <mxGeometry x="330" y="70" width="60" height="10" as="geometry" />
        </mxCell>
        <mxCell id="j5pVDA61vwnsiKHxyYFa-26" value="10" style="text;html=1;align=right;verticalAlign=middle;whiteSpace=wrap;rounded=0;" parent="1" vertex="1">
          <mxGeometry x="140" y="150" width="60" height="20" as="geometry" />
        </mxCell>
        <mxCell id="j5pVDA61vwnsiKHxyYFa-27" value="30" style="text;html=1;align=right;verticalAlign=middle;whiteSpace=wrap;rounded=0;" parent="1" vertex="1">
          <mxGeometry x="140" y="310" width="60" height="20" as="geometry" />
        </mxCell>
        <mxCell id="j5pVDA61vwnsiKHxyYFa-28" value="40" style="text;html=1;align=right;verticalAlign=middle;whiteSpace=wrap;rounded=0;" parent="1" vertex="1">
          <mxGeometry x="140" y="390" width="60" height="20" as="geometry" />
        </mxCell>
        <mxCell id="j5pVDA61vwnsiKHxyYFa-29" value="60" style="text;html=1;align=right;verticalAlign=middle;whiteSpace=wrap;rounded=0;" parent="1" vertex="1">
          <mxGeometry x="140" y="550" width="60" height="20" as="geometry" />
        </mxCell>
        <mxCell id="j5pVDA61vwnsiKHxyYFa-30" value="10" style="text;html=1;align=center;verticalAlign=middle;whiteSpace=wrap;rounded=0;" parent="1" vertex="1">
          <mxGeometry x="250" y="70" width="60" height="10" as="geometry" />
        </mxCell>
        <mxCell id="j5pVDA61vwnsiKHxyYFa-31" value="30" style="text;html=1;align=center;verticalAlign=middle;whiteSpace=wrap;rounded=0;" parent="1" vertex="1">
          <mxGeometry x="410" y="70" width="60" height="10" as="geometry" />
        </mxCell>
        <mxCell id="j5pVDA61vwnsiKHxyYFa-32" value="40" style="text;html=1;align=center;verticalAlign=middle;whiteSpace=wrap;rounded=0;" parent="1" vertex="1">
          <mxGeometry x="490" y="70" width="60" height="10" as="geometry" />
        </mxCell>
        <mxCell id="t0rSE4X7-utWresN4Exf-1" value="Lower Bound" style="rounded=0;whiteSpace=wrap;html=1;fillColor=#f8cecc;strokeColor=#b85450;" vertex="1" parent="1">
          <mxGeometry x="202" y="522" width="400" height="40" as="geometry" />
        </mxCell>
        <mxCell id="t0rSE4X7-utWresN4Exf-2" value="Left&lt;div&gt;Bound&lt;/div&gt;" style="rounded=0;whiteSpace=wrap;html=1;fillColor=#f8cecc;strokeColor=#b85450;" vertex="1" parent="1">
          <mxGeometry x="202" y="82" width="40" height="480" as="geometry" />
        </mxCell>
        <mxCell id="t0rSE4X7-utWresN4Exf-3" value="Right&lt;div&gt;Bound&lt;/div&gt;" style="rounded=0;whiteSpace=wrap;html=1;fillColor=#f8cecc;strokeColor=#b85450;" vertex="1" parent="1">
          <mxGeometry x="562" y="82" width="40" height="480" as="geometry" />
        </mxCell>
        <mxCell id="t0rSE4X7-utWresN4Exf-4" value="" style="rounded=0;whiteSpace=wrap;html=1;opacity=50;" vertex="1" parent="1">
          <mxGeometry x="242" y="122" width="320" height="400" as="geometry" />
        </mxCell>
        <mxCell id="t0rSE4X7-utWresN4Exf-5" value="Scrollable Area" style="text;html=1;align=center;verticalAlign=middle;whiteSpace=wrap;rounded=0;" vertex="1" parent="1">
          <mxGeometry x="370" y="305" width="60" height="30" as="geometry" />
        </mxCell>
        <mxCell id="t0rSE4X7-utWresN4Exf-6" value="&lt;b&gt;Viewport&lt;/b&gt;&lt;div&gt;&lt;b&gt;(x-axis)&lt;/b&gt;&lt;/div&gt;" style="text;html=1;align=center;verticalAlign=middle;resizable=0;points=[];autosize=1;strokeColor=none;fillColor=none;" vertex="1" parent="1">
          <mxGeometry x="365" y="10" width="70" height="40" as="geometry" />
        </mxCell>
        <mxCell id="t0rSE4X7-utWresN4Exf-7" value="&lt;b&gt;Viewport&lt;/b&gt;&lt;div&gt;&lt;b&gt;(y-axis)&lt;/b&gt;&lt;/div&gt;" style="text;html=1;align=right;verticalAlign=middle;resizable=0;points=[];autosize=1;strokeColor=none;fillColor=none;" vertex="1" parent="1">
          <mxGeometry x="90" y="300" width="70" height="40" as="geometry" />
        </mxCell>
      </root>
    </mxGraphModel>
  </diagram>
</mxfile>
